<svg xmlns="http://www.w3.org/2000/svg" viewBox="0 0 1200 760" role="img" aria-labelledby="title desc">
  <title id="title">Комплекты кабеля КДБС на складе</title>
  <desc id="desc">Иллюстрация бухт и комплектов КДБС разной длины для каталога.</desc>
  <defs>
    <linearGradient id="paper" x1="0" y1="0" x2="0" y2="1">
      <stop offset="0" stop-color="#fbfcfd"/>
      <stop offset="1" stop-color="#ecefe8"/>
    </linearGradient>
    <linearGradient id="red" x1="0" x2="1">
      <stop offset="0" stop-color="#9d2618"/>
      <stop offset=".5" stop-color="#f26a38"/>
      <stop offset="1" stop-color="#c03a20"/>
    </linearGradient>
    <filter id="shadow" x="-20%" y="-20%" width="140%" height="160%">
      <feDropShadow dx="0" dy="22" stdDeviation="20" flood-color="#15191f" flood-opacity=".22"/>
    </filter>
  </defs>
  <rect width="1200" height="760" fill="url(#paper)"/>
  <path d="M0 604c160-46 258-86 438-44 164 38 284 109 462 50 126-42 200-103 300-82v232H0z" fill="#24313f" opacity=".08"/>
  <g stroke="#d7dde4" stroke-width="2">
    <path d="M80 122h1040M80 222h1040M80 322h1040M80 422h1040M80 522h1040"/>
  </g>
  <g filter="url(#shadow)">
    <g transform="translate(86 256)">
      <ellipse cx="190" cy="300" rx="190" ry="38" fill="#15191f" opacity=".22"/>
      <rect x="0" y="74" width="380" height="220" rx="58" fill="url(#red)"/>
      <ellipse cx="0" cy="184" rx="58" ry="110" fill="#8d2117"/>
      <ellipse cx="380" cy="184" rx="58" ry="110" fill="#f47a48"/>
      <g stroke="#8f2218" stroke-width="10" opacity=".7">
        <path d="M18 110h340M18 148h340M18 186h340M18 224h340M18 262h340"/>
      </g>
      <rect x="246" y="54" width="34" height="260" rx="10" fill="#eef2f5" opacity=".94"/>
    </g>
    <g transform="translate(418 150)">
      <ellipse cx="225" cy="405" rx="230" ry="42" fill="#15191f" opacity=".24"/>
      <rect x="0" y="84" width="450" height="315" rx="72" fill="#2f3740"/>
      <ellipse cx="0" cy="241" rx="72" ry="157" fill="#161b20"/>
      <ellipse cx="450" cy="241" rx="72" ry="157" fill="#59636e"/>
      <g stroke="#15191f" stroke-width="11" opacity=".86">
        <path d="M20 126h410M20 174h410M20 222h410M20 270h410M20 318h410M20 366h410"/>
      </g>
      <rect x="302" y="58" width="40" height="360" rx="12" fill="#eef2f5" opacity=".92"/>
    </g>
    <g transform="translate(804 278)">
      <ellipse cx="142" cy="274" rx="146" ry="34" fill="#15191f" opacity=".22"/>
      <rect x="0" y="62" width="284" height="206" rx="54" fill="url(#red)"/>
      <ellipse cx="0" cy="165" rx="50" ry="103" fill="#8d2117"/>
      <ellipse cx="284" cy="165" rx="50" ry="103" fill="#f47a48"/>
      <g stroke="#8f2218" stroke-width="9" opacity=".72">
        <path d="M12 98h260M12 134h260M12 170h260M12 206h260M12 242h260"/>
      </g>
    </g>
  </g>
  <g font-family="Inter, Arial, sans-serif">
    <text x="76" y="92" fill="#15191f" font-size="42" font-weight="900">Комплекты 3-145 м</text>
    <text x="76" y="140" fill="#5d6875" font-size="20">Для подбора по площади, шагу укладки или готовой длине</text>
    <g fill="#e34b27" font-size="18" font-weight="900">
      <text x="78" y="686">3 / 5 / 10 / 20 / 35 / 53 / 78 / 97 / 145 м</text>
    </g>
  </g>
</svg>
